<svg xmlns="http://www.w3.org/2000/svg" viewBox="0 0 64 64">
  <rect width="64" height="64" rx="12" fill="#ffffff"/>
  <path fill="#000000" d="M33 8c2-1 4 0 4 2 1 3-1 5-1 7 1 2 3 3 5 2 2-2 4-4 7-2 2 2 1 5-1 7-2 1-4 1-5 3 0 2 2 2 4 3 2 1 3 4 1 6-2 2-5 1-7-1-1-1-2-3-4-2-1 1-1 3-1 5 0 3-2 5-5 4-3-1-3-4-2-6 1-2 2-4 1-5-2-1-3 1-5 2-3 2-6 2-7-1-1-2 1-4 3-5 2-1 4-1 4-3s-2-2-4-3c-2-2-3-5-1-7 2-2 5 0 7 2 2 1 4 0 5-2 0-2-2-4-1-7 0-2 2-3 4-2z"/>
  <circle cx="50" cy="16" r="2.2" fill="#000000"/>
  <circle cx="53" cy="28" r="1.8" fill="#000000"/>
  <circle cx="13" cy="23" r="1.8" fill="#000000"/>
  <circle cx="46" cy="48" r="2.1" fill="#000000"/>
</svg>
